<?xml version="1.0" standalone="no"?>
<!DOCTYPE svg PUBLIC "-//W3C//DTD SVG 20010904//EN"
 "http://www.w3.org/TR/2001/REC-SVG-20010904/DTD/svg10.dtd">
<svg version="1.0" xmlns="http://www.w3.org/2000/svg"
 width="888.000000pt" height="1053.000000pt" viewBox="0 0 888.000000 1053.000000"
 preserveAspectRatio="xMidYMid meet">

<g transform="translate(0.000000,1053.000000) scale(0.100000,-0.100000)"
fill="#343a40" stroke="none">
<path d="M255 10520 c-3 -5 7 -29 23 -52 59 -87 86 -150 86 -208 1 -68 -25
-130 -64 -154 -54 -31 -123 -111 -154 -176 -35 -74 -36 -92 -20 -403 l10 -189
40 -36 c23 -21 62 -49 87 -63 33 -20 56 -45 87 -98 l42 -71 -46 -51 c-49 -55
-76 -122 -76 -193 -1 -65 -25 -180 -70 -335 -52 -180 -53 -176 90 -176 54 0
101 -3 104 -6 3 -3 -30 -23 -74 -44 -88 -43 -82 -34 -95 -160 -8 -79 -35 -131
-105 -199 -71 -67 -95 -124 -105 -247 -9 -115 -1 -152 35 -166 37 -14 62 -54
75 -122 14 -67 29 -77 170 -112 85 -21 158 -51 198 -82 24 -20 21 -50 -8 -77
-24 -22 -28 -23 -146 -17 l-122 7 19 -22 c10 -11 55 -38 99 -58 53 -25 94 -52
118 -79 34 -37 37 -47 39 -104 1 -34 1 -76 0 -94 -1 -35 -12 -30 183 -86 42
-12 50 -18 50 -38 0 -18 -10 -29 -41 -44 -22 -11 -61 -33 -86 -49 l-46 -30 -6
-95 c-4 -53 -9 -130 -12 -172 l-6 -76 131 -13 c72 -7 131 -17 131 -22 0 -5 -7
-22 -15 -37 -20 -40 -58 -51 -125 -35 -87 21 -93 20 -76 -14 11 -20 40 -41 98
-70 46 -23 102 -57 125 -76 23 -20 48 -36 57 -36 9 0 47 15 84 34 96 49 175
70 236 63 91 -9 99 -17 155 -148 28 -64 51 -122 51 -128 0 -15 -60 -51 -86
-51 -11 0 -41 13 -66 29 l-45 29 20 -80 20 -80 31 6 c17 3 72 8 122 12 73 5
96 4 122 -10 38 -20 41 -44 12 -111 -11 -26 -20 -50 -20 -55 0 -4 37 -38 83
-75 85 -70 94 -84 96 -161 0 -22 10 -76 21 -120 12 -43 18 -90 15 -103 -4 -14
-36 -52 -71 -85 l-65 -61 63 -56 64 -57 -7 -83 c-6 -61 -16 -102 -38 -149 -21
-45 -28 -74 -24 -93 12 -63 165 -171 255 -183 23 -2 74 -1 111 4 76 10 100 0
111 -42 9 -38 -9 -72 -77 -143 l-62 -65 24 -19 c31 -25 73 -24 139 3 58 24 71
21 106 -25 13 -17 20 -45 21 -80 1 -30 5 -59 8 -64 4 -6 65 -47 137 -93 126
-79 130 -83 114 -101 -13 -14 -26 -17 -53 -14 -20 3 -56 -1 -81 -8 -42 -13
-45 -17 -50 -53 -7 -51 -14 -61 -60 -84 -27 -14 -40 -28 -45 -50 -12 -54 -45
-70 -151 -70 -82 0 -95 -2 -104 -19 -14 -26 -13 -44 3 -66 12 -16 37 -19 233
-25 190 -7 229 -11 293 -31 l73 -24 27 -75 c16 -41 36 -90 45 -109 20 -38 23
-109 6 -141 -10 -19 -9 -21 7 -16 10 3 149 39 310 80 246 62 294 72 304 60 17
-21 4 -56 -36 -95 -37 -38 -36 -37 -166 -98 l-86 -40 13 -98 c7 -54 16 -159
20 -233 6 -122 9 -137 30 -160 36 -39 64 -113 67 -177 3 -50 11 -71 58 -147
30 -49 67 -99 82 -110 42 -31 115 -26 313 22 111 28 193 42 236 42 125 0 155
-17 102 -59 -20 -16 -41 -21 -85 -21 -69 0 -104 -12 -119 -40 -17 -31 4 -58
55 -71 l44 -11 -6 -67 c-4 -50 -2 -75 10 -98 11 -20 73 -70 181 -146 118 -82
162 -118 153 -125 -6 -5 -42 -26 -79 -46 -37 -21 -70 -41 -72 -45 -3 -4 34
-20 81 -35 l85 -28 -7 -70 c-8 -82 -18 -114 -48 -147 -34 -36 -61 -42 -137
-30 -83 13 -110 3 -110 -40 l0 -29 228 -5 c138 -2 242 -9 266 -16 21 -7 57
-30 80 -51 40 -37 46 -39 117 -42 l74 -3 14 -70 c8 -38 15 -71 16 -72 1 -2 53
6 116 17 63 11 115 20 117 20 1 0 2 -5 2 -11 0 -6 7 -35 16 -64 l15 -54 53 -6
c51 -7 170 15 189 34 4 4 1 29 -7 55 -11 35 -11 48 -3 51 14 5 298 35 326 35
13 0 48 -35 98 -96 l78 -95 65 3 c44 3 85 13 127 32 l61 28 -34 54 -34 53 24
16 c20 13 37 15 83 9 32 -4 67 -7 78 -5 21 3 45 19 45 30 0 4 -39 34 -88 68
-48 34 -97 71 -110 82 -25 25 -29 63 -7 81 24 20 18 27 -25 33 -23 3 -52 13
-66 22 -24 16 -41 41 -32 50 6 7 230 37 234 32 3 -2 -16 -29 -41 -60 l-45 -56
65 -20 c88 -27 147 -33 228 -23 79 10 96 2 127 -58 16 -32 27 -40 57 -45 64
-11 83 -22 83 -51 0 -24 -15 -42 -81 -98 -24 -20 -24 -43 -1 -48 40 -9 79 14
152 90 101 106 114 108 197 37 81 -69 144 -102 217 -113 64 -10 67 -19 -26 91
-32 38 -56 72 -53 77 3 5 36 29 73 54 105 69 133 111 118 171 -9 37 -60 89
-106 110 -22 10 -40 21 -40 26 0 13 93 28 170 28 53 -1 91 5 130 20 75 29 96
27 136 -13 55 -55 44 -93 -54 -189 l-59 -58 76 -79 c42 -43 88 -85 102 -94 24
-15 103 -25 114 -14 3 3 -1 74 -9 159 -13 139 -13 155 1 171 39 43 133 28 169
-26 15 -24 15 -29 -2 -77 -18 -50 -18 -51 1 -65 10 -8 37 -14 59 -14 36 0 46
6 109 73 76 79 100 121 91 164 -5 25 1 34 44 71 30 24 65 69 87 108 l38 67
-34 29 c-19 15 -49 38 -66 50 -18 13 -33 26 -33 29 0 3 54 13 120 23 l120 18
0 79 0 78 41 12 c55 17 68 7 104 -79 17 -39 33 -74 38 -78 4 -4 17 2 30 13 37
35 121 82 183 104 66 22 191 27 237 10 16 -6 33 -11 38 -11 12 0 12 87 -1 92
-7 2 -7 21 0 58 7 36 9 870 8 2475 -3 2235 -4 2418 -19 2390 -9 -16 -19 -46
-23 -66 -3 -20 -15 -44 -25 -53 -18 -17 -20 -16 -26 5 -12 38 -7 151 8 194 12
36 18 40 50 43 l37 3 0 1223 c0 1204 0 1223 -20 1241 -19 17 -19 18 0 43 19
24 20 43 20 723 l0 699 -4309 0 c-2838 0 -4312 -3 -4316 -10z m7966 -557 c33
-34 59 -85 59 -113 0 -40 -130 -21 -172 26 -16 18 -15 22 19 76 39 63 46 64
94 11z m-927 -705 c15 -21 14 -23 -12 -34 -15 -6 -30 -9 -34 -7 -13 7 -9 51 5
56 21 9 25 8 41 -15z m776 -426 c0 -13 -12 -22 -22 -16 -10 6 -1 24 13 24 5 0
9 -4 9 -8z m-7601 -305 c16 -20 -20 -51 -49 -42 l-22 7 23 24 c26 28 32 29 48
11z m1138 -632 c2 -6 -24 -17 -57 -26 -33 -9 -60 -13 -60 -10 0 3 17 16 38 28
38 23 73 26 79 8z m7130 -641 c-1 -1 -26 -11 -55 -22 -70 -27 -79 -8 -10 22
36 16 55 20 60 13 4 -6 6 -12 5 -13z m-169 -289 c36 -11 52 -21 49 -29 -3 -8
-9 -35 -12 -61 -4 -25 -13 -49 -21 -52 -7 -2 -52 7 -101 22 -121 36 -154 79
-95 125 22 18 35 21 77 16 28 -3 74 -13 103 -21z m206 -6 c-8 -14 -34 -11 -34
4 0 8 3 17 7 20 9 9 34 -13 27 -24z m-134 -317 c0 -21 -23 -30 -51 -20 -33 11
-33 12 -17 37 11 18 14 18 40 5 15 -8 28 -18 28 -22z m-7668 -24 c-6 -6 -16
-7 -22 -3 -9 6 -9 9 1 16 17 10 34 0 21 -13z m478 -686 c0 -13 -12 -22 -22
-16 -10 6 -1 24 13 24 5 0 9 -4 9 -8z m259 -134 c-14 -26 -36 -33 -54 -18 -14
12 -14 15 0 30 10 11 25 15 40 12 21 -4 23 -7 14 -24z m6552 -1031 c-1 -12
-15 -9 -19 4 -3 6 1 10 8 8 6 -3 11 -8 11 -12z m-163 -100 c8 -10 5 -20 -11
-40 -20 -24 -24 -25 -41 -12 -19 15 -19 15 4 40 27 29 33 30 48 12z m207 -51
c18 -13 18 -15 2 -40 -15 -22 -21 -25 -37 -16 -23 12 -23 11 -10 44 11 30 19
32 45 12z m425 -81 c0 -8 -7 -15 -15 -15 -16 0 -20 12 -8 23 11 12 23 8 23 -8z
m-286 -81 c23 -23 20 -51 -10 -81 l-26 -26 -125 7 c-142 7 -167 15 -131 38 35
23 110 60 138 69 47 14 137 10 154 -7z m303 -12 c22 -14 -9 -46 -35 -38 -18 6
-20 11 -12 27 11 20 27 24 47 11z m-118 -178 c-49 -52 -97 -76 -247 -129 -73
-25 -146 -54 -162 -64 l-30 -18 100 -18 c55 -10 97 -22 93 -26 -5 -3 -47 -21
-95 -38 -80 -30 -89 -31 -115 -18 -54 28 -93 95 -93 160 0 42 17 57 105 98 60
27 87 34 185 41 63 4 144 17 180 27 36 11 76 20 89 20 24 1 24 0 -10 -35z
m-41 -195 c2 -14 -6 -37 -18 -52 -17 -22 -29 -27 -63 -27 -37 1 -120 27 -90
29 6 1 25 12 41 26 71 60 125 70 130 24z m-668 -311 c0 -11 -109 -41 -126 -34
-33 13 -12 33 49 47 59 14 76 11 77 -13z m-267 -118 c81 -71 44 -165 -70 -178
l-46 -5 6 39 c4 21 10 49 13 61 5 20 1 23 -55 34 -34 6 -61 15 -61 19 0 5 15
14 33 20 17 7 48 18 67 26 53 20 76 17 113 -16z m429 1 c18 -16 30 -32 27 -35
-3 -4 -31 -12 -62 -18 -44 -9 -59 -9 -71 1 -21 17 -20 40 1 63 24 27 68 23
105 -11z m-25 -168 c-48 -79 -68 -96 -101 -87 -23 5 -27 11 -24 38 3 27 12 36
77 73 41 23 77 41 79 38 2 -2 -12 -30 -31 -62z m-792 17 c3 -5 1 -10 -4 -10
-6 0 -11 5 -11 10 0 6 2 10 4 10 3 0 8 -4 11 -10z m178 -261 l47 -67 -54 -28
c-48 -25 -56 -26 -84 -15 -28 12 -91 82 -136 153 l-18 27 58 54 59 55 40 -57
c23 -31 62 -86 88 -122z m379 154 c21 -19 23 -52 5 -77 -12 -17 -14 -17 -44 1
-26 15 -31 22 -26 43 5 22 28 50 42 50 2 0 13 -7 23 -17z m-5199 -68 c27 -17
27 -18 10 -37 -53 -59 -165 -71 -228 -24 -20 15 -20 15 0 30 75 58 159 70 218
31z m635 -100 c7 -7 -80 -64 -108 -70 -16 -4 -43 0 -65 9 -32 14 -36 18 -25
32 31 37 96 54 155 42 22 -5 41 -11 43 -13z m60 -12 c5 -18 -23 -16 -39 3 -11
14 -10 15 11 12 13 -1 25 -9 28 -15z m3717 1 c31 -31 -5 -164 -58 -212 -24
-22 -27 -23 -55 -8 -32 16 -82 70 -82 88 0 11 45 68 93 121 30 31 76 36 102
11z m-597 -226 c-4 -30 -48 -39 -48 -10 0 24 8 32 32 32 14 0 19 -6 16 -22z
m-3578 -58 c0 -5 -4 -10 -10 -10 -5 0 -10 5 -10 10 0 6 5 10 10 10 6 0 10 -4
10 -10z m3840 -24 c0 -3 -4 -8 -10 -11 -5 -3 -10 -1 -10 4 0 6 5 11 10 11 6 0
10 -2 10 -4z m-485 -89 c-70 -40 -104 -50 -146 -44 -76 10 -64 23 38 45 54 11
109 20 123 21 22 1 20 -2 -15 -22z m-2956 -226 c12 -8 12 -12 2 -25 -19 -23
-31 -20 -31 9 0 27 6 30 29 16z m2405 -160 c7 -11 -22 -23 -36 -15 -6 4 -5 10
3 15 18 11 26 11 33 0z m-326 -245 c-3 -23 -25 -31 -47 -17 -12 8 -12 13 3 36
14 22 20 24 32 14 8 -7 14 -22 12 -33z m-1879 -172 c44 -38 60 -76 63 -148 2
-44 -1 -51 -35 -82 -41 -38 -85 -45 -108 -18 -11 14 -10 22 9 57 l22 41 -32
33 c-38 39 -44 92 -16 135 21 32 42 28 97 -18z m4839 -36 c-3 -7 -12 -14 -21
-16 -12 -2 -15 1 -11 12 7 19 38 22 32 4z m292 -276 c17 -13 20 -24 15 -45 -4
-15 -9 -27 -12 -27 -13 0 -93 23 -93 27 0 13 43 63 55 63 7 0 23 -8 35 -18z
m200 -2 c0 -5 -4 -10 -10 -10 -5 0 -10 5 -10 10 0 6 5 10 10 10 6 0 10 -4 10
-10z m-4847 -65 c7 -18 2 -21 -70 -46 -63 -21 -63 -20 4 27 55 38 59 39 66 19z
m195 -86 c-16 -10 -33 5 -23 21 5 8 11 8 21 -1 12 -10 12 -14 2 -20z m-140
-112 c2 -28 -1 -37 -12 -37 -12 0 -16 11 -16 41 0 52 24 48 28 -4z m259 -75
c7 -4 10 -17 6 -31 -5 -18 -10 -21 -32 -16 -34 8 -45 20 -38 39 7 17 43 21 64
8z m2312 -671 c21 -13 5 -41 -24 -41 -20 0 -25 5 -25 25 0 26 22 33 49 16z
m-920 -55 l44 -23 -34 -12 c-31 -11 -36 -10 -51 10 -18 22 -24 49 -10 49 4 -1
27 -11 51 -24z m-559 -180 c24 -10 22 -11 -19 -14 -45 -3 -68 8 -56 28 7 11
27 7 75 -14z m670 -80 c0 -3 -4 -8 -10 -11 -5 -3 -10 -1 -10 4 0 6 5 11 10 11
6 0 10 -2 10 -4z"/>
<path d="M980 5760 c0 -28 2 -30 40 -30 l41 0 -34 30 c-19 17 -37 30 -41 30
-3 0 -6 -13 -6 -30z"/>
<path d="M1123 5749 c-37 -18 -41 -23 -32 -40 9 -17 19 -19 72 -17 62 3 62 3
65 36 2 21 -1 32 -10 32 -7 0 -22 3 -33 5 -11 3 -39 -4 -62 -16z"/>
<path d="M1987 3533 c-13 -12 -7 -51 9 -57 34 -13 54 -7 54 17 0 36 -41 63
-63 40z"/>
<path d="M2353 2869 c-18 -5 -35 -14 -38 -19 -7 -11 32 -80 45 -80 28 0 141
45 172 69 l38 28 -46 7 c-63 8 -132 6 -171 -5z"/>
<path d="M1890 2134 c20 -23 48 -36 55 -24 3 5 -8 16 -24 25 -38 19 -47 19
-31 -1z"/>
<path d="M2956 2124 c-40 -28 -45 -57 -10 -62 16 -2 24 6 37 39 9 24 15 44 14
46 -2 1 -20 -9 -41 -23z"/>
<path d="M2373 2065 c-5 -14 22 -55 36 -55 3 0 13 13 23 29 14 26 14 30 1 35
-27 11 -54 6 -60 -9z"/>
<path d="M2156 1986 c-9 -14 -16 -28 -16 -30 0 -6 84 -56 94 -56 4 0 6 24 4
53 -3 50 -4 52 -34 55 -24 2 -35 -3 -48 -22z"/>
<path d="M2455 1891 c-3 -5 -1 -12 5 -16 12 -7 30 2 30 16 0 12 -27 12 -35 0z"/>
<path d="M3650 1210 c0 -5 7 -10 16 -10 8 0 12 5 9 10 -3 6 -10 10 -16 10 -5
0 -9 -4 -9 -10z"/>
<path d="M8200 1110 l-25 -20 40 2 c27 2 40 8 40 18 0 22 -27 22 -55 0z"/>
<path d="M3760 1025 c-10 -12 -9 -16 3 -21 17 -6 37 2 37 16 0 15 -29 19 -40
5z"/>
<path d="M6544 386 c-3 -8 0 -32 6 -52 10 -31 14 -34 22 -20 12 22 6 78 -9 84
-7 2 -16 -3 -19 -12z"/>
<path d="M6096 360 c-16 -28 -16 -29 2 -39 15 -8 24 -5 41 13 l22 23 -24 16
c-23 15 -24 14 -41 -13z"/>
<path d="M5431 314 c-27 -35 -27 -52 3 -60 36 -9 65 4 72 32 7 28 0 38 -32 48
-16 5 -27 0 -43 -20z"/>
<path d="M4877 234 c-15 -31 -25 -59 -22 -62 3 -4 18 0 33 9 29 16 39 50 25
87 -8 20 -11 17 -36 -34z"/>
<path d="M5805 149 c-36 -51 -62 -69 -100 -69 -30 0 -155 -53 -155 -66 0 -4
44 -5 98 -2 110 5 167 26 261 93 l53 38 -49 19 c-26 10 -55 20 -64 23 -11 4
-25 -8 -44 -36z"/>
<path d="M6115 150 c-3 -5 3 -10 15 -10 12 0 18 5 15 10 -3 6 -10 10 -15 10
-5 0 -12 -4 -15 -10z"/>
</g>
</svg>
