<?xml version="1.0" standalone="no"?>
<!DOCTYPE svg PUBLIC "-//W3C//DTD SVG 20010904//EN"
 "http://www.w3.org/TR/2001/REC-SVG-20010904/DTD/svg10.dtd">
<svg version="1.0" xmlns="http://www.w3.org/2000/svg"
 width="388.000000pt" height="287.000000pt" viewBox="0 0 388.000000 287.000000"
 preserveAspectRatio="xMidYMid meet">

<g transform="translate(0.000000,287.000000) scale(0.100000,-0.100000)"
fill="#ffffff" stroke="none">
<path d="M15 2858 c-3 -7 -4 -278 -3 -603 l3 -590 95 0 95 0 5 335 5 335 42
-115 c24 -63 78 -214 122 -335 l79 -220 93 0 94 0 3 597 2 598 -23 5 c-12 3
-56 5 -97 3 l-75 -3 -3 -327 c-1 -183 -6 -328 -11 -328 -5 0 -13 12 -19 28
-97 277 -217 610 -225 620 -6 8 -38 12 -94 12 -58 0 -85 -4 -88 -12z"/>
<path d="M920 2861 c-84 -18 -131 -63 -149 -142 -15 -62 -14 -843 0 -909 26
-120 100 -155 318 -148 157 5 202 21 242 85 l24 38 3 455 c2 321 0 467 -9 497
-12 46 -58 95 -104 114 -35 14 -274 21 -325 10z m234 -200 c14 -12 16 -57 16
-397 l0 -383 -22 -15 c-14 -10 -44 -16 -83 -16 -39 0 -69 6 -83 16 l-22 15 0
378 c0 389 1 399 40 415 26 10 137 1 154 -13z"/>
<path d="M1454 2857 c-3 -8 -4 -52 -2 -98 l3 -84 97 -3 98 -3 2 -502 3 -502
95 0 95 0 3 502 2 502 98 3 97 3 3 89 c2 65 -1 92 -10 98 -7 4 -140 8 -296 8
-226 0 -284 -3 -288 -13z"/>
<path d="M2142 2862 c-10 -7 -12 -134 -10 -603 l3 -594 95 0 95 0 0 600 0 600
-85 3 c-47 1 -91 -2 -98 -6z"/>
<path d="M2455 2858 c-3 -7 -4 -278 -3 -603 l3 -590 95 0 95 0 3 252 2 252
153 3 152 3 0 90 0 90 -152 3 -153 3 0 154 0 155 198 2 197 3 3 89 c2 65 -1
92 -10 98 -7 4 -140 8 -296 8 -217 0 -284 -3 -287 -12z"/>
<path d="M3124 2855 c-4 -8 56 -165 132 -348 l139 -332 5 -255 5 -255 83 -3
c53 -2 89 1 98 9 11 9 14 58 14 254 l0 242 141 343 c110 268 138 345 127 351
-16 11 -169 12 -184 1 -7 -4 -49 -104 -95 -222 -45 -118 -84 -217 -86 -220 -7
-8 -19 19 -98 223 -43 111 -85 208 -93 215 -24 19 -181 16 -188 -3z"/>
<path d="M37 1528 c-9 -7 -21 -26 -27 -41 -11 -32 -13 -1064 -1 -1107 4 -15
21 -32 41 -42 32 -17 89 -18 741 -18 l705 0 91 -92 c51 -51 121 -122 157 -158
l66 -65 158 158 157 157 713 2 714 3 24 28 24 28 0 555 0 555 -25 24 -24 25
-1749 0 c-1383 0 -1752 -3 -1765 -12z m1312 -185 c5 -21 31 -136 57 -256 l48
-218 53 238 c29 130 56 245 59 255 5 15 17 18 89 18 66 0 84 -3 89 -16 8 -20
8 -758 0 -778 -5 -12 -21 -16 -70 -16 l-64 0 0 237 c0 130 -2 234 -5 232 -2
-3 -25 -98 -50 -213 -25 -114 -48 -218 -51 -232 -5 -21 -12 -24 -50 -24 -51 0
-41 -25 -105 270 l-44 204 -3 -237 -2 -238 -68 3 -67 3 -3 390 c-1 214 0 396
3 402 3 9 30 13 89 13 l85 0 10 -37z m919 -27 c2 -41 -1 -62 -10 -67 -7 -5
-68 -9 -135 -9 l-123 0 0 -100 0 -100 105 0 105 0 0 -65 0 -65 -105 0 -105 0
0 -105 0 -105 135 0 136 0 -3 -62 -3 -63 -200 0 -200 0 -3 390 c-1 214 0 396
3 403 3 10 49 12 202 10 l198 -3 3 -59z m258 49 c3 -8 2 -139 -3 -292 l-8
-278 -60 0 -60 0 -6 130 c-4 72 -7 203 -8 293 l-1 162 70 0 c53 0 72 -4 76
-15z m-8 -727 l3 -68 -66 0 -65 0 0 63 c0 35 3 67 7 71 4 4 32 6 63 4 l55 -3
3 -67z"/>
</g>
</svg>
