<?xml version="1.0" standalone="no"?>
<!DOCTYPE svg PUBLIC "-//W3C//DTD SVG 20010904//EN"
 "http://www.w3.org/TR/2001/REC-SVG-20010904/DTD/svg10.dtd">
<svg version="1.0" xmlns="http://www.w3.org/2000/svg"
 width="423.000000pt" height="86.000000pt" viewBox="0 0 423.000000 86.000000"
 preserveAspectRatio="xMidYMid meet">

<g transform="translate(0.000000,86.000000) scale(0.100000,-0.100000)"
fill="#fff" stroke="none">
<path d="M12 848 c-9 -9 -12 -114 -12 -409 0 -219 3 -404 6 -413 5 -12 21 -16
70 -16 35 0 65 1 66 3 1 1 5 106 8 232 l5 230 54 -150 c29 -82 67 -187 83
-232 l30 -83 64 0 64 0 -2 423 -3 422 -44 3 c-25 2 -55 1 -68 -2 l-23 -6 -2
-232 -3 -231 -79 224 c-44 123 -84 230 -89 237 -12 16 -109 16 -125 0z"/>
<path d="M650 851 c-52 -11 -78 -28 -97 -64 -16 -29 -18 -65 -18 -352 0 -349
1 -357 58 -399 25 -19 42 -21 152 -21 110 0 127 2 152 21 57 42 58 50 58 399
0 355 -2 367 -66 401 -35 18 -184 27 -239 15z m168 -413 c2 -275 2 -277 -19
-289 -27 -14 -108 -6 -120 12 -14 23 -11 533 3 547 8 8 35 12 73 10 l60 -3 3
-277z"/>
<path d="M1022 852 c-9 -6 -12 -27 -10 -68 l3 -59 67 -3 68 -3 2 -352 3 -352
68 -3 67 -3 0 356 0 355 70 0 71 0 -3 68 -3 67 -195 2 c-107 2 -201 -1 -208
-5z"/>
<path d="M1502 848 c-9 -9 -12 -114 -12 -409 0 -219 3 -404 6 -413 9 -23 129
-23 138 0 3 9 6 194 6 413 0 295 -3 400 -12 409 -16 16 -110 16 -126 0z"/>
<path d="M1722 848 c-9 -9 -12 -114 -12 -409 0 -219 3 -404 6 -413 9 -23 129
-23 138 0 3 9 6 90 6 180 l0 164 105 0 105 0 0 65 0 65 -105 0 -105 0 0 110 0
110 134 0 c113 0 135 2 140 16 10 27 7 99 -6 112 -17 17 -389 17 -406 0z"/>
<path d="M2194 846 c-3 -8 37 -115 88 -238 l93 -223 5 -185 5 -185 65 0 65 0
3 172 2 172 100 242 c75 182 97 245 88 251 -16 10 -109 10 -124 0 -6 -4 -37
-75 -70 -159 -32 -84 -62 -149 -65 -145 -4 4 -32 72 -63 151 -31 80 -61 148
-68 153 -23 14 -118 9 -124 -6z"/>
<path d="M2820 831 c-6 -12 -10 -132 -10 -319 0 -277 1 -300 18 -315 16 -15
50 -17 268 -17 l249 0 87 -87 88 -88 88 88 87 87 243 0 c149 0 251 4 263 10
18 10 19 24 19 323 0 230 -3 316 -12 325 -9 9 -177 12 -695 12 -664 0 -683 -1
-693 -19z m449 -83 c5 -13 19 -71 31 -131 13 -59 27 -104 31 -100 4 5 17 53
28 108 32 144 32 145 86 145 l45 0 0 -225 0 -225 -40 0 -40 0 -1 118 -1 117
-23 -102 c-29 -131 -30 -133 -58 -133 -23 0 -26 7 -48 112 l-24 112 -5 -110
-5 -109 -37 -3 -38 -3 0 225 0 226 45 0 c38 0 47 -4 54 -22z m509 -20 l3 -38
-75 0 -76 0 0 -55 0 -54 58 -3 c55 -3 57 -4 60 -32 4 -36 -10 -46 -70 -46
l-48 0 0 -55 0 -55 75 0 75 0 0 -35 0 -36 -112 3 -113 3 -3 210 c-1 115 0 215
3 223 3 10 31 12 112 10 l108 -3 3 -37z m140 -120 l-3 -163 -31 -3 c-26 -3
-33 1 -38 20 -8 31 -8 293 1 301 3 4 21 7 40 7 l33 0 -2 -162z m0 -250 l3 -38
-40 0 c-40 0 -41 1 -41 33 0 42 7 49 45 45 27 -3 30 -7 33 -40z"/>
</g>
</svg>
